<svg width="69" height="18" viewBox="0 0 69 18" fill="none" xmlns="http://www.w3.org/2000/svg">
<path d="M20.2203 2.31067C19.0154 2.31067 18.4129 2.96651 18.4129 4.27818V5.01027H21.776V7.29807H18.4816V17.1356H15.6218V4.23242C15.6218 2.936 16.0031 1.9065 16.7657 1.1439C17.5283 0.381299 18.6112 0 20.0144 0C21.0973 0 21.9514 0.221153 22.5767 0.66346L21.776 2.81399C21.3184 2.47845 20.7999 2.31067 20.2203 2.31067Z" fill="#F9F9F7"/>
<path fill-rule="evenodd" clip-rule="evenodd" d="M13.1385 17.1356H10.416V15.557C9.94321 16.1366 9.35601 16.5713 8.65442 16.8611C7.96808 17.1508 7.20548 17.2957 6.36662 17.2957C5.17697 17.2957 4.10933 17.0365 3.16371 16.5179C2.23334 15.9993 1.50124 15.2672 0.967426 14.3216C0.448859 13.376 0.189575 12.2778 0.189575 11.0272C0.189575 9.77652 0.448859 8.686 0.967426 7.75563C1.50124 6.81001 2.23334 6.07791 3.16371 5.55934C4.10933 5.04078 5.17697 4.78149 6.36662 4.78149C7.15973 4.78149 7.88419 4.91876 8.54003 5.1933C9.21112 5.46783 9.79069 5.87201 10.2788 6.40583V4.91876H13.1385V17.1356ZM6.68692 14.8478C7.7393 14.8478 8.60866 14.497 9.295 13.7954C9.98134 13.0938 10.3245 12.1711 10.3245 11.0272C10.3245 9.88328 9.98134 8.96053 9.295 8.25894C8.60866 7.55735 7.7393 7.20656 6.68692 7.20656C5.63453 7.20656 4.76517 7.55735 4.07883 8.25894C3.40774 8.96053 3.0722 9.88328 3.0722 11.0272C3.0722 12.1711 3.40774 13.0938 4.07883 13.7954C4.76517 14.497 5.63453 14.8478 6.68692 14.8478Z" fill="#F9F9F7"/>
<path d="M25.22 4.27818C25.22 2.96651 25.8225 2.31067 27.0274 2.31067C27.607 2.31067 28.1255 2.47845 28.5831 2.81399L29.3838 0.66346C28.7585 0.221153 27.9044 0 26.8215 0C25.4183 0 24.3354 0.381299 23.5728 1.1439C22.8102 1.9065 22.4289 2.936 22.4289 4.23242V13.6825C23.2051 13.0391 24.2017 12.6524 25.2887 12.6522V7.29807H28.5831V5.01027H25.22V4.27818Z" fill="#F9F9F7"/>
<path fill-rule="evenodd" clip-rule="evenodd" d="M40.9996 17.1356H38.2771V15.557C37.8043 16.1366 37.2171 16.5713 36.5155 16.8611C35.8291 17.1508 35.0665 17.2957 34.2277 17.2957C33.038 17.2957 31.9704 17.0365 31.0248 16.5179C30.0944 15.9993 29.3623 15.2672 28.8285 14.3216C28.3099 13.376 28.0506 12.2778 28.0506 11.0272C28.0506 9.77652 28.3099 8.686 28.8285 7.75563C29.3623 6.81001 30.0944 6.07791 31.0248 5.55934C31.9704 5.04078 33.038 4.78149 34.2277 4.78149C35.0208 4.78149 35.7453 4.91876 36.4011 5.1933C37.0722 5.46783 37.6518 5.87201 38.1398 6.40583V4.91876H40.9996V17.1356ZM34.548 14.8478C35.6004 14.8478 36.4697 14.497 37.1561 13.7954C37.8424 13.0938 38.1856 12.1711 38.1856 11.0272C38.1856 9.88328 37.8424 8.96053 37.1561 8.25894C36.4697 7.55735 35.6004 7.20656 34.548 7.20656C33.4956 7.20656 32.6262 7.55735 31.9399 8.25894C31.2688 8.96053 30.9333 9.88328 30.9333 11.0272C30.9333 12.1711 31.2688 13.0938 31.9399 13.7954C32.6262 14.497 33.4956 14.8478 34.548 14.8478Z" fill="#F9F9F7"/>
<path d="M50.5522 4.78149C48.4779 4.78149 47.029 5.42208 46.2054 6.70324V4.91876H43.4829V17.1356H46.3426V11.2102C46.3426 9.99004 46.6553 9.05967 47.2806 8.41909C47.906 7.76325 48.7753 7.43534 49.8887 7.43534C50.087 7.43534 50.3082 7.45821 50.5522 7.50397V4.78149Z" fill="#F9F9F7"/>
<path d="M58.5832 16.4721C58.2477 16.7467 57.8359 16.9526 57.3478 17.0898C56.875 17.2271 56.3717 17.2957 55.8379 17.2957C54.4957 17.2957 53.4586 16.9449 52.7265 16.2434C51.9944 15.5418 51.6283 14.5199 51.6283 13.1777V2.21916H54.4881V5.01027H57.7596V7.29807H54.4881V13.1091C54.4881 13.7039 54.633 14.1615 54.9228 14.4817C55.2278 14.7868 55.6472 14.9393 56.1811 14.9393C56.8216 14.9393 57.3555 14.7715 57.7825 14.436L58.3349 15.8405L59.3913 13.7497C59.9404 14.1157 60.5962 14.4131 61.3588 14.6419C62.1367 14.8554 62.8993 14.9622 63.6466 14.9622C65.3548 14.9622 66.2089 14.5123 66.2089 13.6124C66.2089 13.1853 65.9878 12.8879 65.5455 12.7201C65.1184 12.5524 64.4244 12.3922 63.4636 12.2397C62.4569 12.0872 61.6333 11.9118 60.9927 11.7135C60.3674 11.5152 59.8183 11.1721 59.3455 10.684C58.888 10.1807 58.6592 9.48673 58.6592 8.60211C58.6592 7.44296 59.1396 6.52022 60.1005 5.83388C61.0766 5.13229 62.3883 4.78149 64.0355 4.78149C64.8744 4.78149 65.7132 4.88063 66.5521 5.07891C67.391 5.26193 68.0773 5.51359 68.6111 5.83388L67.513 8.00729C66.4758 7.39721 65.3091 7.09217 64.0126 7.09217C63.1738 7.09217 62.5332 7.22181 62.0909 7.48109C61.6638 7.72512 61.4503 8.05304 61.4503 8.46485C61.4503 8.9224 61.6791 9.25032 62.1366 9.4486C62.6095 9.63162 63.3339 9.80702 64.3101 9.97479C65.2862 10.1273 66.0869 10.3027 66.7122 10.501C67.3376 10.6993 67.8714 11.0348 68.3137 11.5076C68.7713 11.9804 69 12.6515 69 13.5209C69 14.6648 68.5043 15.5799 67.513 16.2662C66.5216 16.9526 65.1718 17.2957 63.4636 17.2957C62.4722 17.2957 61.5037 17.1661 60.5581 16.9068C59.668 16.6627 58.9468 16.3579 58.3945 15.9922L58.5832 16.4721Z" fill="#F9F9F7"/>
</svg>
